<?xml version="1.0" encoding="utf-8"?>
<!-- Generator: Adobe Illustrator 15.1.0, SVG Export Plug-In . SVG Version: 6.00 Build 0)  -->
<!DOCTYPE svg PUBLIC "-//W3C//DTD SVG 1.1//EN" "http://www.w3.org/Graphics/SVG/1.1/DTD/svg11.dtd">
<svg version="1.1" id="Layer_1" xmlns="http://www.w3.org/2000/svg" xmlns:xlink="http://www.w3.org/1999/xlink" x="0px" y="0px"
	 width="2741.453px" height="1235.754px" viewBox="0 0 2741.453 1235.754" enable-background="new 0 0 2741.453 1235.754"
	 xml:space="preserve">
<g>
	<path fill="#FFFFFF" d="M2086.557,1105.605c5.882-8.057,12.083-17.681,18.588-28.828c6.509-11.161,13.167-23.078,19.986-35.794
		c6.817-12.702,13.158-24.945,19.062-36.718c5.881-11.763,11.308-22.161,16.264-31.14c4.959-8.98,8.679-15.35,11.162-19.071
		c10.531,16.742,17.971,32.237,22.313,46.49c4.32,14.266,6.503,29.746,6.503,46.484c0,11.147-0.929,23.572-2.79,37.179
		c-1.244,10.555-3.405,21.088-6.505,31.605c-3.103,10.56-4.648,21.089-4.648,31.621c0,9.286,3.252,19.379,9.762,30.215
		c6.511,10.841,15.344,16.26,26.497,16.26h9.298c8.043-3.106,18.896-7.587,32.54-13.477c13.62-5.889,26.796-12.229,39.51-19.053
		c12.696-6.812,23.705-13.477,33.007-19.994c9.301-6.502,13.936-12.23,13.936-17.195c0-3.718-1.245-7.118-3.713-10.224
		c-2.49-3.091-6.203-4.644-11.154-4.644c-2.481,0-4.972,0.616-7.439,1.859c-14.266,5.566-28.511,11.147-42.769,16.727
		c-14.266,5.583-28.818,9.918-43.691,13.023c4.95-26.043,9.134-47.428,12.544-64.155c3.406-16.738,5.119-31.917,5.119-45.551
		c0-11.156-1.244-21.528-3.72-31.152c-2.482-9.593-6.503-19.524-12.083-29.747c-5.581-10.227-12.707-21.383-21.384-33.467
		c-8.688-12.083-19.216-26.496-31.61-43.238c-6.823-3.721-13.012-5.566-18.592-5.566c-6.832,0-12.712,2.479-17.663,7.427
		c-4.966,8.07-11.775,20.93-20.455,38.593c-8.686,17.669-17.655,36.415-26.956,56.245c-9.301,19.832-18.448,39.049-27.427,57.636
		c-8.993,18.603-16.273,32.851-21.854,42.767c-4.343,3.722-6.503,8.363-6.503,13.942c0,4.351,1.4,8.218,4.189,11.617
		c2.783,3.426,6.649,5.113,11.615,5.113c1.238,0,1.998-0.133,2.321-0.456c0.308-0.308,0.775-0.467,1.398-0.467
		C2075.543,1118.61,2080.655,1113.66,2086.557,1105.605 M1996.855,956.852c-2.483,7.426-5.273,15.026-8.372,22.777
		c-3.104,7.747-6.503,14.863-10.224,21.382c-3.719,6.504-6.832,11.938-9.293,16.271c-11.161,19.22-20.454,32.226-27.896,39.036
		c2.47-9.902,5.882-20.756,10.224-32.532c4.336-11.775,8.988-23.242,13.952-34.405c4.958-11.146,10.522-21.515,16.733-31.138
		c6.19-9.609,12.392-16.874,18.595-21.853C2000.575,942.599,1999.323,949.411,1996.855,956.852 M2052.169,955.448
		c1.545-8.366,2.321-16.874,2.321-25.562c0-14.862-3.104-28.031-9.287-39.516c-6.211-11.452-17.993-17.193-35.334-17.193
		c-17.356,0-32.86,5.741-46.483,17.193c-13.643,11.484-25.425,25.429-35.327,41.845c-9.922,16.42-18.124,33.616-24.634,51.602
		c-6.513,17.972-11.623,33.467-15.345,46.475c-2.48,8.056-4.034,15.963-4.642,23.713c-0.629,7.747-0.93,15.335-0.93,22.773
		c-3.112,3.107-4.65,6.826-4.65,11.147c0,4.979,1.861,8.38,5.58,10.24c0,13.018,1.538,25.557,4.642,37.64
		c3.099,12.099,7.903,22.775,14.412,32.079c6.511,9.299,14.714,16.738,24.637,22.305c9.9,5.583,21.685,8.376,35.329,8.376
		c6.186,0,13.782-2.487,22.774-7.438c8.979-4.963,14.411-7.749,16.272-8.364c5.58-2.487,13.482-8.054,23.706-16.74
		c10.224-8.669,20.133-17.956,29.748-27.886c9.605-9.902,18.132-19.525,25.564-28.812c7.434-9.3,11.153-16.11,11.153-20.462
		c0-4.947-1.86-9.299-5.58-13.02c-3.712-3.706-7.747-5.564-12.077-5.564c-3.719,0-6.51,2.166-8.37,6.5
		c-3.72,8.059-9.452,15.967-17.2,23.7c-7.757,7.762-15.807,14.883-24.169,21.383c-8.372,6.519-16.126,12.248-23.244,17.211
		c-7.132,4.967-12.553,8.363-16.272,10.21c-4.342,3.12-8.216,4.981-11.614,5.577c-3.413,0.632-6.664,0.942-9.764,0.942
		c-11.781,0-19.522-6.344-23.244-19.059c-3.719-12.698-5.579-25.56-5.579-38.577c13.628-3.721,25.873-9.77,36.725-18.136
		c10.84-8.364,20.756-18.13,29.749-29.279c8.979-11.157,17.04-23.242,24.175-36.262c7.11-13.022,13.781-26.028,19.992-39.049
		C2048.286,970.49,2050.615,963.827,2052.169,955.448 M1651.946,997.761l-0.929,5.563v-4.642c0-0.602,0.307-1.231,0.929-1.861
		V997.761z M1543.635,1013.095c-5.272,14.574-10.217,29.747-14.866,45.55c-4.651,15.804-8.693,31.464-12.09,46.96
		c-3.414,15.495-5.112,29.746-5.112,42.755c0,13.02,2.629,22.626,7.903,28.822c5.256,6.194,11.62,9.299,19.053,9.299
		c9.301,0,18.903-5.271,28.825-15.803c9.907-10.544,19.523-23.244,28.816-38.124c9.295-14.882,17.973-30.218,26.036-46.021
		c8.048-15.802,14.866-28.955,20.445-39.504c-0.621,6.197-1.244,12.409-1.858,18.587c-0.623,6.215-0.932,12.408-0.932,18.592
		c0,6.208,0.309,13.18,0.932,20.929c0.614,7.746,2.012,15.026,4.188,21.836c2.169,6.842,5.72,12.554,10.69,17.211
		c4.952,4.643,11.771,6.958,20.449,6.958c17.348,0,31.453-6.035,42.306-18.118c10.832-12.084,20.604-25.253,29.28-39.519
		c0.606,8.072,2.007,17.211,4.189,27.435c2.168,10.224,5.41,19.685,9.761,28.342c4.328,8.7,10.372,16.139,18.125,22.322
		c7.742,6.21,17.503,9.299,29.287,9.299c6.818,0,12.852-1.245,18.132-3.72c5.259-2.475,9.754-5.257,13.476-8.364
		c27.888-23.551,50.509-48.026,67.866-73.452c17.348-25.397,31.605-55.159,42.767-89.242c0-5.579-1.56-9.9-4.649-13.023
		c-3.112-3.086-6.834-4.641-11.161-4.641c-4.958,0-9.608,3.104-13.936,9.302c-4.351,11.146-10.385,24.166-18.132,39.031
		c-7.757,14.883-16.591,29.295-26.499,43.236c-9.922,13.944-20.915,26.027-33.003,36.253c-12.085,10.237-24.329,15.964-36.722,17.21
		c-4.964-5.583-8.37-13.329-10.229-23.245c-1.855-9.9-2.786-20.46-2.786-31.605c0-14.883,0.771-30.056,2.322-45.553
		c1.546-15.497,2.322-28.503,2.322-39.048c-1.858-8.058-5.104-13.944-9.754-17.666c-4.651-3.718-9.762-5.578-15.343-5.578
		c-9.924,1.244-18.595,6.825-26.034,16.727l-46.481,76.235c1.236-16.729,4.65-34.244,10.223-52.523
		c5.581-18.281,8.372-36.411,8.372-54.383c0-5.579-0.464-11.308-1.394-17.196c-0.929-5.885-2.651-11.307-5.119-16.286
		c-2.481-4.937-5.889-9.127-10.222-12.539c-4.345-3.396-10.225-5.11-17.665-5.11c-8.686,0-16.426,2.943-23.236,8.832
		c-6.832,5.887-13.174,13.005-19.062,21.386c-5.895,8.36-11.154,16.726-15.803,25.089c-4.651,8.377-8.526,15.348-11.623,20.929
		c-6.826,10.547-13.022,21.692-18.594,33.467c-5.574,11.776-11.775,23.553-18.594,35.327c4.326-16.109,8.369-31.913,12.09-47.425
		c3.721-15.479,5.572-29.425,5.572-41.831c0-6.807-1.09-13.781-3.25-20.913c-2.184-7.119-4.806-10.695-7.902-10.695
		c-2.481,0-5.895,3.109-10.231,9.302c-4.342,6.196-10.546,17.665-18.587,34.392C1553.08,985.369,1548.899,998.537,1543.635,1013.095
		 M1282.88,997.761l-0.931,5.563v-4.642c0-0.602,0.308-1.231,0.931-1.861V997.761z M1174.567,1013.095
		c-5.272,14.574-10.224,29.747-14.868,45.55c-4.656,15.804-8.691,31.464-12.089,46.96c-3.414,15.495-5.119,29.746-5.119,42.755
		c0,13.02,2.636,22.626,7.909,28.822c5.258,6.194,11.622,9.299,19.055,9.299c9.301,0,18.895-5.271,28.817-15.803
		c9.916-10.544,19.531-23.244,28.832-38.124c9.287-14.882,17.964-30.218,26.027-46.021c8.041-15.802,14.866-28.955,20.446-39.504
		c-0.621,6.197-1.246,12.409-1.859,18.587c-0.623,6.215-0.932,12.408-0.932,18.592c0,6.208,0.309,13.18,0.932,20.929
		c0.613,7.746,2.007,15.026,4.188,21.836c2.169,6.842,5.721,12.554,10.692,17.211c4.951,4.643,11.761,6.958,20.446,6.958
		c17.342,0,31.454-6.035,42.301-18.118c10.838-12.084,20.601-25.253,29.285-39.519c0.607,8.072,2.007,17.211,4.188,27.435
		c2.162,10.224,5.413,19.685,9.754,28.342c4.336,8.7,10.379,16.139,18.133,22.322c7.741,6.21,17.503,9.299,29.287,9.299
		c6.805,0,12.854-1.245,18.124-3.72c5.268-2.475,9.765-5.257,13.484-8.364c27.887-23.551,50.5-48.026,67.865-73.452
		c17.35-25.397,31.607-55.159,42.769-89.242c0-5.579-1.56-9.9-4.648-13.023c-3.115-3.086-6.836-4.641-11.165-4.641
		c-4.964,0-9.605,3.104-13.933,9.302c-4.352,11.146-10.395,24.166-18.135,39.031c-7.755,14.883-16.589,29.295-26.496,43.236
		c-9.922,13.944-20.916,26.027-33.005,36.253c-12.083,10.237-24.336,15.964-36.722,17.21c-4.965-5.583-8.368-13.329-10.229-23.245
		c-1.859-9.9-2.79-20.46-2.79-31.605c0-14.883,0.777-30.056,2.322-45.553c1.544-15.497,2.329-28.503,2.329-39.048
		c-1.861-8.058-5.113-13.944-9.756-17.666c-4.65-3.718-9.77-5.578-15.341-5.578c-9.924,1.244-18.594,6.825-26.036,16.727
		l-46.479,76.235c1.229-16.729,4.642-34.244,10.222-52.523c5.581-18.281,8.371-36.411,8.371-54.383
		c0-5.579-0.462-11.308-1.398-17.196c-0.924-5.885-2.645-11.307-5.113-16.286c-2.475-4.937-5.887-9.127-10.222-12.539
		c-4.352-3.396-10.226-5.11-17.666-5.11c-8.691,0-16.432,2.943-23.243,8.832c-6.824,5.887-13.168,13.005-19.057,21.386
		c-5.9,8.36-11.16,16.726-15.803,25.089c-4.65,8.377-8.524,15.348-11.622,20.929c-6.825,10.547-13.021,21.692-18.593,33.467
		c-5.58,11.776-11.776,23.553-18.595,35.327c4.327-16.109,8.37-31.913,12.09-47.425c3.722-15.479,5.581-29.425,5.581-41.831
		c0-6.807-1.099-13.781-3.259-20.913c-2.182-7.119-4.811-10.695-7.902-10.695c-2.488,0-5.901,3.109-10.23,9.302
		c-4.341,6.196-10.545,17.665-18.594,34.392C1184.013,985.369,1179.825,998.537,1174.567,1013.095 M911.482,945.689
		c-6.501,18.589-12.552,38.582-18.133,59.966c-5.564,21.386-10.075,42.623-13.474,63.684c-3.414,21.077-5.112,39.371-5.112,54.852
		c0,15.497,1.698,28.517,5.112,39.047c3.398,10.547,7.739,19.058,13.006,25.562c5.273,6.518,11.161,11.159,17.671,13.957
		c6.512,2.781,12.853,4.175,19.056,4.175c10.539,0,21.529-2.945,33.006-8.833c11.47-5.889,22.322-13.476,32.537-22.775
		c10.231-9.301,19.824-19.672,28.819-31.139c8.984-11.469,16.271-22.788,21.852-33.937c1.23,4.332,2.79,10.692,4.65,19.056
		c1.859,8.362,4.644,16.595,8.363,24.636c3.714,8.056,8.509,15.028,14.412,20.917c5.881,5.886,13.161,8.831,21.846,8.831
		c3.097,0,7.441-0.776,13.021-2.333c5.581-1.55,11.152-4.009,16.726-7.422c5.58-3.413,10.539-7.282,14.882-11.629
		c4.32-4.321,6.503-9.302,6.503-14.868c0-1.229-0.783-3.561-2.322-6.971c-1.56-3.412-3.873-5.112-6.979-5.112
		c-5.573,0-11.468,2.313-17.657,6.971c-6.202,4.646-11.476,6.959-15.811,6.959c-3.104,0-5.574-2.463-7.433-7.426
		c-1.861-4.953-3.413-10.841-4.65-17.665c-1.245-6.812-2.021-13.62-2.329-20.446c-0.308-6.827-0.461-12.392-0.461-16.741
		c0-17.972,1.397-35.006,4.182-51.131c2.797-16.113,4.188-29.426,4.188-39.973c0-8.671-2.482-15.644-7.441-20.915
		c-4.965-5.255-10.852-7.91-17.663-7.91c-7.44,0-14.566,4.514-21.377,13.476c-6.832,8.994-13.481,19.846-19.992,32.546
		c-6.51,12.712-13.175,26.028-19.985,39.973c-6.833,13.941-13.329,25.573-19.523,34.856c-5.574,8.702-12.707,17.064-21.385,25.103
		c-8.686,8.073-15.804,16.436-21.376,25.108v0.936c-4.344,3.104-9.302,6.196-14.883,9.289c-4.342-15.485-6.511-34.084-6.511-55.775
		c0-29.75,3.099-60.582,9.302-92.511c6.188-31.916,13.021-59.332,20.461-82.271c1.23-3.721,1.846-6.194,1.846-7.439
		c0-4.952-1.552-8.831-4.643-11.616c-3.105-2.796-6.504-4.189-10.225-4.189c-5.579,0-10.23,3.105-13.95,9.302
		C924.035,913.159,917.993,927.089,911.482,945.689 M644.678,1173.931c-25.105,7.118-50.992,10.69-77.626,10.69
		c-14.883,0-29.749-1.404-44.63-4.189c-14.867-2.783-28.355-7.438-40.438-13.942c-12.084-6.504-21.853-15.026-29.287-25.558
		c-7.433-10.546-11.154-23.26-11.154-38.126c0-19.203,5.88-34.698,17.665-46.487c11.761-11.763,25.712-21.048,41.831-27.888
		c16.112-6.812,32.544-11.455,49.271-13.943c16.743-2.477,30.056-3.721,39.985-3.721c19.203,0,38.111,1.095,56.704,3.264
		c18.596,2.167,36.566,4.806,53.923,7.896l27.887,5.58c3.106,8.056,5.728,16.578,7.91,25.561c2.159,8.99,3.252,17.822,3.252,26.494
		c0,13.022-2.49,25.574-7.44,37.657c-4.965,12.083-13.637,22.161-26.027,30.215C690.376,1157.981,669.783,1166.813,644.678,1173.931
		 M661.874,613.797c-17.979,0-35.481,2.944-52.524,8.834c-17.047,5.902-32.397,13.942-46.019,24.165
		c-13.637,10.239-24.488,21.854-32.537,34.874c-8.063,13.023-12.091,26.948-12.091,41.832c0,15.497,3.72,30.844,11.159,46.02
		c7.441,15.188,17.203,30.217,29.279,45.083c12.099,14.88,25.252,29.615,39.518,44.16c14.251,14.571,28.196,28.676,41.838,42.298
		c13.628,13.651,26.034,27.125,37.188,40.455c11.153,13.328,19.194,25.879,24.175,37.642c-26.034-5.58-49.287-10.061-69.734-13.475
		c-20.446-3.4-40.292-5.112-59.493-5.112c-24.168,0-47.267,3.414-69.266,10.225c-22.014,6.825-41.376,16.727-58.103,29.748
		c-16.742,13.02-30.069,28.97-39.978,47.878c-9.924,18.911-14.874,40.133-14.874,63.685c0,20.447,4.642,38.433,13.943,53.914
		c9.299,15.498,22.152,28.356,38.579,38.596c16.418,10.208,35.474,17.957,57.181,23.227c21.685,5.263,44.922,7.91,69.726,7.91
		c29.747,0,58.41-2.943,85.99-8.831c27.573-5.901,52.062-15.204,73.446-27.888c21.384-12.713,38.417-29.133,51.131-49.287
		c12.699-20.124,19.057-44.452,19.057-72.971c0-4.946-0.455-10.369-1.393-16.271c-0.922-5.871-1.391-11.309-1.391-16.271
		c16.11,4.963,32.537,9.93,49.271,14.879c16.733,4.967,33.146,10.226,49.271,15.807c13.014,0,19.523-4.643,19.523-13.945
		c0-6.194-2.798-11.16-8.371-14.88c-17.348-6.812-36.572-14.092-57.642-21.854c-21.069-7.731-43.383-15.014-66.936-21.838
		c-7.426-21.69-17.817-41.507-31.139-59.492c-13.336-17.972-27.887-34.716-43.691-50.21c-15.812-15.483-31.775-30.057-47.88-43.693
		c-16.126-13.622-30.685-26.8-43.706-39.516c-13.006-12.699-23.698-25.25-32.068-37.643c-8.362-12.393-12.546-25.104-12.546-38.125
		c0.608-11.146,5.112-21.985,13.476-32.545c8.364-10.518,18.441-19.656,30.217-27.42c11.761-7.731,24.175-13.942,37.188-18.585
		c13.022-4.657,24.782-6.972,35.327-6.972c8.041,0,14.56,0.453,19.525,1.39c4.95,0.925,9.754,2.168,14.411,3.723
		c4.645,1.55,9.602,3.572,14.874,6.05c5.259,2.471,11.923,5.564,19.985,9.284c13.021,0,19.524-4.951,19.524-14.867
		c0-4.965-2.783-9.916-8.363-14.881C731.607,622.176,696.587,613.797,661.874,613.797"/>
	<path fill="#FFFFFF" d="M1588.43,659.845c4.059-5.932,9.784-8.891,17.188-8.891c4.257,0,7.858,0.938,10.803,2.813
		c2.943,1.873,5.323,4.482,7.146,7.838c1.83,3.353,3.172,7.249,4.034,11.715c0.865,4.468,1.29,9.271,1.29,14.457
		c0,12.977-2.029,22.351-6.079,28.135c-4.056,5.786-9.797,8.672-17.194,8.672c-4.058,0-7.552-0.923-10.494-2.737
		c-2.944-1.818-5.353-4.351-7.228-7.604c-1.873-3.251-3.267-7.132-4.184-11.646c-0.914-4.509-1.368-9.445-1.368-14.82
		C1582.345,675.094,1584.375,665.779,1588.43,659.845 M1563.18,710.436c1.823,6.795,4.584,12.625,8.283,17.488
		c3.704,4.877,8.393,8.628,14.076,11.264c5.682,2.637,12.368,3.952,20.079,3.952c14.405,0,25.53-4.788,33.395-14.367
		c7.858-9.593,11.783-23.257,11.783-40.995c0-8.319-0.907-15.878-2.731-22.675c-1.824-6.795-4.613-12.624-8.364-17.501
		c-3.756-4.862-8.473-8.611-14.148-11.249c-5.689-2.638-12.324-3.956-19.934-3.956c-14.508,0-25.653,4.792-33.468,14.37
		c-7.807,9.593-11.717,23.26-11.717,41.011C1560.434,696.083,1561.349,703.64,1563.18,710.436 M1524.535,722.462h-46.553V634.52
		h-20.837v106.499h67.39V722.462z M1403.751,722.462h-46.547V634.52h-20.848v106.499h67.395V722.462z M1214.347,741.019h63.904
		v-18.558h-43.054v-26.026h38.482v-18.558h-38.482v-24.784h42.292V634.52h-63.143V741.019z M1132.515,741.019h20.844V634.52h-20.844
		v43.357h-38.944V634.52h-20.844v106.499h20.844v-44.584h38.944V741.019z"/>
	<path fill="#FFFFFF" d="M1336.23,203.031l-2.49,10.832h33.123l2.417-5.002c11.344-23.522,22.498-46.876,33.431-69.945
		c15.292-31.191,30.128-54.757,44.072-70.034c18.916-20.389,38.682-30.305,60.433-30.305c18.967,0,33.613,6.475,44.878,19.935
		c10.713,12.341,15.927,27.925,15.927,47.631c0,25.822-14.609,60.096-43.522,102.029c-3.084,4.702-30.985,40.629-82.965,106.847
		c-31.55,40.616-46.254,67.624-46.3,84.965c-0.864-0.892-1.735-1.8-2.614-2.709c-20.906-21.56-35.063-37.848-42.063-48.408
		c-24.834-36.997-50.283-62.57-75.659-76.031c-57.151-29.792-74.508-39.89-79.092-43.178
		c-28.796-20.213-43.405-41.479-43.405-63.209c0-21.083,7.462-36.923,22.708-48.369c14.45-10.546,33.541-15.908,56.758-15.908
		c15.101,0,33.848,6.709,55.686,19.854c18.265,11.292,36.72,22.754,55.366,34.383l5.822,3.632
		C1343.78,173.978,1339.613,188.318,1336.23,203.031 M1590.955,29.072c-18.503-23.524-43.541-35.438-74.423-35.438
		c-44.527,0-85.354,25.896-121.299,76.932c-15.728,22.072-28.897,45.836-39.398,71.051c-3.56-20.872-22.646-39.678-58.083-57.298
		c-32.888-16.199-62.064-24.423-86.73-24.423c-27.139,0-51.833,10.641-73.363,31.628c-21.619,21.063-32.575,45.215-32.575,71.799
		c0,37.759,20.945,75.402,62.219,111.9c2.717,2.417,18.426,14.354,122.974,89.784c49.229,35.9,82.235,69.074,98.075,98.601
		c5.339,13.9,10.596,28.21,15.738,42.856c6.135,15.482,16.148,36.06,32.368,36.06c5.551,0,23.662-1.991,23.662-27.535
		c0-21.633-7.345-43.413-21.815-64.739c-4.74-6.986-11.439-15.468-20.043-25.31c8.054-7.088,15.977-17.268,24.145-31.021
		c6.545-10.984,13.27-21.956,20.05-32.75c9.996-14.955,30.802-40.542,61.816-76.016c29.134-33.072,50.121-60.308,62.438-81.026
		c18.996-32.574,28.626-65.543,28.626-97.986C1615.336,76.161,1607.165,50.265,1590.955,29.072"/>
</g>
</svg>
